<svg t="1607683771849" class="icon" viewBox="0 0 1024 1024" version="1.1" xmlns="http://www.w3.org/2000/svg" p-id="4244" width="200" height="200"><path d="M741.157282 465.512388a42.38167 42.38167 0 0 0 42.27231-42.252427 104.269049 104.269049 0 0 1 21.116272 63.378641c0 58.338175-47.282951 105.631068-105.631068 105.631068-58.338175 0-105.621126-47.292893-105.621126-105.631068S640.576621 381.007534 698.904854 381.007534c6.31301 0.029825 12.606136 0.596505 18.809787 1.680155a53.287767 53.287767 0 0 0-18.809787 40.56233c0.019883 7.436427 1.978408 14.713786 5.706563 21.136156H698.904854a42.252427 42.252427 0 1 0 36.555806 21.126213v-0.417553a54.679612 54.679612 0 0 0 5.696622 0.417553M318.63301 381.007534c58.358058 0 105.64101 47.292893 105.641009 105.631068S376.991068 592.26967 318.63301 592.26967c-58.338175 0-105.621126-47.292893-105.621127-105.631068a104.269049 104.269049 0 0 1 21.116272-63.378641 42.38167 42.38167 0 0 0 42.252428 42.252427c0.994175 0.029825 1.98835-0.039767 2.96264-0.208776l0.427495 5.070291a42.252427 42.252427 0 1 0 38.862292-25.987728h-5.696622a42.252427 42.252427 0 0 0 5.696622-21.126214 53.287767 53.287767 0 0 0-18.799845-40.572272 112.391456 112.391456 0 0 1 18.789903-1.690097" fill="#64A6F0" p-id="4245"></path><path d="M717.714641 382.687689a105.352699 105.352699 0 0 1 65.714951 40.56233 42.38167 42.38167 0 0 1-42.27231 42.262369 52.293592 52.293592 0 0 1-5.696622-0.427495 42.262369 42.262369 0 0 1-36.555806-41.834874 53.30765 53.30765 0 0 1 18.809787-40.56233M299.843107 382.687689a53.297709 53.297709 0 0 1 18.799844 40.56233 42.252427 42.252427 0 0 1-36.545864 41.834874c-0.845049 0-1.908816 0.208777-2.753864 0.208777a13.87868 13.87868 0 0 1-2.942757 0.218718 42.38167 42.38167 0 0 1-42.252427-42.252427 105.352699 105.352699 0 0 1 65.695068-40.56233" fill="#F8FAFD" p-id="4246"></path><path d="M994.671845 64.11433v887.300971a42.371728 42.371728 0 0 1-42.252428 42.252427H65.118447a42.371728 42.371728 0 0 1-42.232544-42.252427V64.11433a42.371728 42.371728 0 0 1 42.242485-42.252427H952.419417a42.371728 42.371728 0 0 1 42.252428 42.252427M717.724583 382.687689a112.41134 112.41134 0 0 0-18.809787-1.690097c-58.338175 0-105.621126 47.302835-105.621126 105.64101 0 58.338175 47.282951 105.631068 105.621126 105.631068 58.348117 0 105.631068-47.292893 105.631068-105.631068 0-51.100583-36.555806-94.854214-86.821281-103.950913m-417.881476 0a105.650951 105.650951 0 0 0 28.284272 209.164428c56.26035-5.070291 98.602252-53.516427 96.057165-109.96567a105.621126 105.621126 0 0 0-124.341437-99.198758" fill="#FFD0AA" p-id="4247"></path><path d="M312.011806 783.091573h405.712777V725.747573h-405.722719z" fill="#2F333A" p-id="4248"></path><path d="M973.565515 951.415301a21.136155 21.136155 0 0 1-21.136156 21.126214H65.118447a21.136155 21.136155 0 0 1-21.126214-21.126214V64.11433c0-11.671612 9.464544-21.126214 21.126214-21.126213H952.419417c11.671612 0 21.136155 9.44466 21.136156 21.126213v887.300971zM952.419417 0.735689H65.118447A63.378641 63.378641 0 0 0 1.749748 64.11433v887.300971a63.378641 63.378641 0 0 0 63.37864 63.378641H952.419417a63.378641 63.378641 0 0 0 63.378641-63.378641V64.11433A63.378641 63.378641 0 0 0 952.419417 0.735689z" fill="#2F333A" p-id="4249"></path><path d="M698.904854 571.143456a84.514796 84.514796 0 0 1-18.133747-166.902058 76.959068 76.959068 0 0 0-2.982524 19.018563c0 1.262602 0.427495 2.475495 0.487145 3.738097a63.249398 63.249398 0 1 0 84.007767 59.640544c0-1.272544-0.407612-2.485437-0.477204-3.738097a62.891495 62.891495 0 0 0 20.161864-11.542369c0.934524 5.040466 1.42167 10.140583 1.461437 15.280466 0 46.666563-37.848233 84.504854-84.514796 84.504854m62.036505-141.331883a20.927379 20.927379 0 0 1-19.784078 14.574602 27.409398 27.409398 0 0 1-2.992466-0.258486 21.086447 21.086447 0 0 1-18.123806-20.87767 36.187961 36.187961 0 0 1 4.791923-16.722019 83.321786 83.321786 0 0 1 36.118369 23.283573M721.333437 361.879612a131.350369 131.350369 0 0 0-22.418641-2.008233c-70.009786 0-126.757282 56.747495-126.757281 126.757281s56.747495 126.757282 126.757281 126.757282 126.757282-56.747495 126.757282-126.757282a124.86835 124.86835 0 0 0-25.351457-76.054369 126.240311 126.240311 0 0 0-78.987184-48.694679M318.63301 571.143456a84.514796 84.514796 0 0 1-84.504855-84.504854c0.039767-5.129942 0.536854-10.24 1.471379-15.280466 5.91534 5.050408 12.715495 8.947573 20.042563 11.522485 0 1.262602-0.377786 2.515262-0.377786 3.777864a63.368699 63.368699 0 0 0 56.200699 63.249398 63.368699 63.368699 0 0 0 27.817009-122.889941c0-1.262602 0.497087-2.485437 0.497088-3.738097a77.316971 77.316971 0 0 0-2.704156-19.018563 84.504854 84.504854 0 0 1-18.432 166.882174m-25.918135-164.635339c2.932816 5.110058 4.573204 10.856388 4.791922 16.751844a21.10633 21.10633 0 0 1-18.123806 20.867728 11.184466 11.184466 0 0 0-2.992466 0.258486 20.947262 20.947262 0 0 1-19.803961-14.614369 83.480854 83.480854 0 0 1 36.128311-23.263689m25.918135-46.626797c-7.56567 0.049709-15.121398 0.765515-22.567767 2.107651a126.160777 126.160777 0 0 0-78.838058 48.595262 124.937942 124.937942 0 0 0-25.351456 76.054369c0 70.009786 56.747495 126.757282 126.757281 126.757281S445.390291 556.638447 445.390291 486.638602s-56.747495-126.757282-126.757281-126.757282" fill="#2F333A" p-id="4250"></path></svg>